<svg width="913" height="772" viewBox="0 0 913 772" fill="none" xmlns="http://www.w3.org/2000/svg">
<path d="M717 517.5C749.38 437.884 751.78 343.462 726.303 261.377C700.825 179.291 647.674 108.579 575.905 61.289C504.136 13.9989 418.19 -6.94332 332.711 2.03067C247.233 11.0047 167.51 49.3396 107.127 110.504C46.744 171.668 9.43699 251.877 1.56248 337.464C-6.31204 423.051 15.7332 508.72 63.9419 579.875C112.151 651.031 183.54 703.269 265.946 727.689C348.353 752.11 436.677 747.201 515.87 713.801L457.971 576.523C410.538 596.528 357.636 599.468 308.278 584.841C258.92 570.215 216.161 538.926 187.286 496.308C158.412 453.689 145.207 402.377 149.924 351.114C154.64 299.851 176.986 251.809 213.152 215.175C249.319 178.54 297.069 155.579 348.267 150.204C399.465 144.829 450.943 157.373 493.929 185.698C536.916 214.022 568.751 256.376 584.011 305.541C599.271 354.707 582.894 452.814 563.5 500.5C563.5 500.5 590.599 495.522 637.5 498.5C669 500.5 717 517.5 717 517.5Z" fill="#1d4ed8"/>
<path d="M912.18 733.012C867.023 657.048 796.265 599.669 712.611 571.177C628.957 542.686 537.887 544.949 455.751 577.56L510.73 716.033C559.926 696.501 611.5 685.442 650 692.5C688.5 699.559 712.5 710 730 771.5L912.18 733.012Z" fill="#1d4ed8"/>
</svg>
